<svg width="32" height="32" viewBox="0 0 32 32" fill="none" xmlns="http://www.w3.org/2000/svg">
<path d="M20 10L9.58749 20.5875C9.24277 20.9679 9.05756 21.4664 9.0702 21.9796C9.08283 22.4929 9.29235 22.9816 9.65538 23.3446C10.0184 23.7076 10.5071 23.9172 11.0204 23.9298C11.5336 23.9424 12.032 23.7572 12.4125 23.4125L24.825 10.825C25.5144 10.0641 25.8849 9.06721 25.8596 8.04074C25.8343 7.01426 25.4153 6.03681 24.6892 5.31076C23.9632 4.58472 22.9857 4.16568 21.9593 4.1404C20.9328 4.11513 19.9359 4.48556 19.175 5.175L6.76249 17.7625C5.63864 18.8864 5.00726 20.4106 5.00726 22C5.00726 23.5894 5.63864 25.1136 6.76249 26.2375C7.88635 27.3614 9.41062 27.9927 11 27.9927C12.5894 27.9927 14.1136 27.3614 15.2375 26.2375L25.5 16" stroke="#78787C" stroke-width="2" stroke-linecap="round" stroke-linejoin="round"/>
</svg>
